Coordinates
version=1
nRows=60
nColumns=12
inDegrees=yes

Units are S.I. units (second, meters, Newtons, ...)
Angles are in degrees

endheader
time	SC_y	SC_z	SC_x	AC_y	AC_z	AC_x	GH_y	GH_z	GH_yy	EL_x	PS_y
       0.0               -28.3          38.56          51.49          66.89         -10.08          17.27          67.45          69.45          140.7          8.791          49.27
   0.04797              -28.31          38.56          51.49          66.89         -10.08          17.26          67.44          69.44          140.7          8.793          49.28
   0.09594              -28.31          38.56           51.5          66.89         -10.07          17.26          67.43          69.43          140.7          8.795          49.29
    0.1439              -28.32          38.55           51.5          66.89         -10.07          17.26          67.42          69.42          140.7          8.798           49.3
    0.1919              -28.32          38.55           51.5          66.89         -10.07          17.25          67.41          69.41          140.7          8.801          49.31
    0.2399              -28.33          38.55          51.51          66.89         -10.07          17.25           67.4           69.4          140.7          8.803          49.32
    0.2878              -28.33          38.54          51.51          66.89         -10.07          17.24          67.39          69.39          140.6          8.807          49.33
    0.3358              -28.34          38.54          51.51          66.88         -10.06          17.24          67.38          69.38          140.6           8.81          49.34
    0.3838              -28.35          38.53          51.52          66.88         -10.06          17.23          67.36          69.37          140.6          8.813          49.35
    0.4317              -28.35          38.53          51.52          66.88         -10.06          17.23          67.35          69.35          140.6          8.817          49.36
    0.4797              -28.36          38.52          51.53          66.88         -10.06          17.22          67.33          69.34          140.6          8.821          49.38
    0.5277              -28.37          38.52          51.54          66.88         -10.05          17.21          67.32          69.32          140.6          8.826          49.39
    0.5757              -28.38          38.51          51.54          66.88         -10.05          17.21           67.3           69.3          140.5           8.83          49.41
    0.6236              -28.39           38.5          51.55          66.88         -10.05           17.2          67.28          69.29          140.5          8.835          49.43
    0.6716               -28.4          38.49          51.56          66.88         -10.04          17.19          67.26          69.27          140.5          8.841          49.45
    0.7196              -28.41          38.49          51.56          66.88         -10.04          17.18          67.23          69.24          140.5          8.847          49.47
    0.7675              -28.42          38.48          51.57          66.87         -10.03          17.17          67.21          69.22          140.4          8.853          49.49
    0.8155              -28.43          38.47          51.58          66.87         -10.03          17.16          67.18          69.19          140.4           8.86          49.52
    0.8635              -28.44          38.46          51.59          66.87         -10.02          17.15          67.15          69.17          140.4          8.868          49.55
    0.9115              -28.46          38.45           51.6          66.87         -10.02          17.14          67.12          69.14          140.3          8.876          49.58
    0.9594              -28.48          38.43          51.61          66.87         -10.01          17.12          67.08           69.1          140.3          8.886          49.61
     1.007               -28.5          38.42          51.63          66.86          -10.0          17.11          67.04          69.06          140.2          8.896          49.64
     1.055              -28.52           38.4          51.64          66.86         -9.996          17.09           67.0          69.02          140.2          8.907          49.68
     1.103              -28.54          38.39          51.66          66.86         -9.988          17.07          66.95          68.98          140.1           8.92          49.73
     1.151              -28.56          38.37          51.68          66.86         -9.978          17.05          66.89          68.93          140.0          8.934          49.78
     1.199              -28.59          38.35           51.7          66.85         -9.967          17.02          66.83          68.87          140.0          8.949          49.83
     1.247              -28.62          38.32          51.72          66.85         -9.955           17.0          66.77          68.81          139.9          8.966          49.89
     1.295              -28.66           38.3          51.75          66.84         -9.942          16.97          66.69          68.74          139.8          8.986          49.96
     1.343               -28.7          38.27          51.78          66.84         -9.926          16.93           66.6          68.66          139.7          9.008          50.04
     1.391              -28.74          38.23          51.81          66.83         -9.909           16.9          66.51          68.56          139.6          9.033          50.13
     1.439              -28.79          38.19          51.85          66.82         -9.889          16.85           66.4          68.46          139.4          9.062          50.23
     1.487              -28.85          38.15          51.89          66.82         -9.867           16.8          66.27          68.34          139.3          9.094          50.35
     1.535              -28.92           38.1          51.94          66.81          -9.84          16.75          66.12           68.2          139.1          9.132          50.48
     1.583               -29.0          38.04           52.0           66.8          -9.81          16.68          65.95          68.04          138.9          9.176          50.64
     1.631               -29.1          37.97          52.07          66.79         -9.774           16.6          65.75          67.85          138.6          9.228          50.82
     1.679               -29.2          37.88          52.15          66.77         -9.732          16.51          65.51          67.63          138.3          9.288          51.04
     1.727              -29.34          37.79          52.24          66.75         -9.682           16.4          65.23          67.37          138.0           9.36          51.29
     1.775              -29.49          37.67          52.36          66.73         -9.622          16.27          64.89          67.06          137.6          9.447           51.6
     1.823              -29.68          37.53          52.49          66.71          -9.55          16.11          64.48          66.67          137.1          9.551          51.97
     1.871              -29.91          37.35          52.66          66.68         -9.461          15.91          63.99          66.21          136.5          9.679          52.42
     1.919               -30.2          37.14          52.87          66.64         -9.352          15.67          63.37          65.63          135.7          9.837          52.98
     1.967              -30.55          36.87          53.13           66.6         -9.216          15.37          62.61          64.92          134.8          10.03          53.68
     2.015               -31.0          36.53          53.46          66.54         -9.044          14.99          61.64          64.01          133.6          10.28          54.56
     2.063              -31.57           36.1          53.87          66.46         -8.826          14.51          60.41          62.87          132.1           10.6          55.67
     2.111               -32.3          35.55          54.41          66.37         -8.547           13.9          58.84           61.4          130.2           11.0           57.1
     2.159              -33.23          34.84          55.09          66.25         -8.189          13.11          56.82          59.51          127.7          11.52          58.94
     2.207              -34.43          33.94          55.96          66.09         -7.731           12.1          54.25           57.1          124.5          12.18          61.28
     2.255              -35.93          32.81          57.06          65.89         -7.156          10.83          51.01          54.07          120.6          13.01          64.23
     2.303              -37.76          31.43           58.4          65.66         -6.455           9.29          47.06          50.38          115.7          14.02          67.82
     2.351              -39.89          29.83          59.95          65.38         -5.642            7.5          42.49           46.1          110.1          15.19          71.98
     2.399              -42.18          28.09          61.63          65.08         -4.762          5.562          37.53          41.47          104.0          16.46          76.49
     2.447              -44.48          26.36          63.31          64.78         -3.882          3.624          32.58          36.84          97.96          17.73          80.99
     2.495               -46.6          24.76          64.86           64.5         -3.069          1.834          28.01          32.56          92.35          18.91          85.15
     2.542              -48.43          23.38          66.19          64.26         -2.368         0.2902          24.06          28.87          87.51          19.92          88.74
      2.59              -49.94          22.24          67.29          64.07         -1.793        -0.9769          20.82          25.84          83.54          20.75          91.69
     2.638              -51.13          21.34          68.16          63.91         -1.335         -1.985          18.25          23.43          80.38          21.41          94.03
     2.686              -52.07          20.64          68.85          63.79        -0.9767         -2.774          16.23          21.55          77.91          21.93          95.87
     2.734               -52.8          20.09          69.38           63.7        -0.6975         -3.388          14.66          20.08          75.98          22.33           97.3
     2.782              -53.37          19.66           69.8          63.62        -0.4794         -3.869          13.43          18.93          74.48          22.64          98.41
      2.83              -53.81          19.32          70.12          63.56        -0.3078         -4.246          12.46          18.03          73.29          22.89          99.29
